# This file uses centimeters as units for non-parametric coordinates.

mtllib Env_mountain_01.mtl
g default
v 4.648561 -0.022265 -8.051542
v -4.648561 -0.041909 -8.051542
v -9.297124 -0.028431 0.000000
v -4.648565 -0.010336 8.051542
v 4.648561 0.000000 8.051542
v 9.297125 -0.022265 0.000000
v 3.235694 4.850429 -5.711417
v -3.881698 4.533836 -6.107100
v -5.433197 5.244979 1.029603
v -3.313778 4.330520 6.216934
v 2.536146 4.375180 6.327414
v 5.451306 6.765383 -0.214841
v 1.346848 8.279643 0.682132
vt 0.250000 1.000000
vt 0.291242 0.879250
vt 0.674016 0.854678
vt 0.750000 1.000000
vt 0.000000 0.500000
vt 0.207802 0.436062
vt 0.250000 0.000000
vt 0.321785 0.113929
vt 0.750000 0.000000
vt 0.636394 0.107068
vt 1.000000 0.500000
vt 0.793172 0.513342
vt 0.572434 0.457639
vn -0.453034 0.516264 -0.726795
vn -0.446964 0.635768 -0.629303
vn 0.427049 0.585664 -0.688932
vn 0.475300 0.473581 -0.741492
vn -0.858642 0.511675 -0.030368
vn -0.742157 0.668117 0.053132
vn -0.485356 0.473812 0.734801
vn -0.431854 0.585741 0.685864
vn 0.538310 0.489680 0.685883
vn 0.425629 0.563932 0.707687
vn 0.856616 0.514939 0.032350
vn 0.781362 0.623993 0.010266
vn -0.044381 0.998499 0.032103
s 1
g pCylinder811
usemtl blinn2SG
f 2/1/1 8/2/2 7/3/3 1/4/4
f 3/5/5 9/6/6 8/2/2 2/1/1
f 4/7/7 10/8/8 9/6/6 3/5/5
f 5/9/9 11/10/10 10/8/8 4/7/7
f 6/11/11 12/12/12 11/10/10 5/9/9
f 1/4/4 7/3/3 12/12/12 6/11/11
f 7/3/3 8/2/2 13/13/13
f 8/2/2 9/6/6 13/13/13
f 9/6/6 10/8/8 13/13/13
f 10/8/8 11/10/10 13/13/13
f 11/10/10 12/12/12 13/13/13
f 12/12/12 7/3/3 13/13/13
